<?xml version="1.0" ?><!DOCTYPE svg  PUBLIC '-//W3C//DTD SVG 1.1//EN'  'http://www.w3.org/Graphics/SVG/1.1/DTD/svg11.dtd'><svg height="512px" style="enable-background:new 0 0 512 512;" version="1.1" viewBox="0 0 512 512" width="512px" xml:space="preserve" xmlns="http://www.w3.org/2000/svg" xmlns:xlink="http://www.w3.org/1999/xlink"><g id="_x32_18_x2C__Arrow_x2C__Arrows_x2C__Back"><g id="XMLID_4927_"><g id="XMLID_4928_"><path d="M221.629,418c-2.622,0-5.232-1.025-7.186-3.043L65.689,261.374c-3.784-3.907-3.751-10.122,0.073-13.989L214.517,96.968     c3.652-3.692,9.523-3.975,13.512-0.65l47.5,39.583c2.159,1.798,3.461,4.422,3.589,7.229c0.127,2.807-0.933,5.538-2.919,7.524     L172.337,254.516l103.959,106.931c1.941,1.997,2.962,4.713,2.816,7.494s-1.445,5.376-3.585,7.159l-47.5,39.583     C226.166,417.234,223.894,418,221.629,418z M86.865,254.489l135.489,139.888l32.077-26.73L151.124,261.388     c-3.812-3.921-3.768-10.176,0.099-14.042l103.091-103.09l-32.034-26.694L86.865,254.489z"/></g><g id="XMLID_4929_"><path d="M391.63,418c-2.622,0-5.232-1.025-7.186-3.043L235.689,261.374c-3.784-3.907-3.751-10.122,0.073-13.989L384.517,96.968     c3.653-3.692,9.522-3.974,13.513-0.65l47.5,39.583c2.158,1.798,3.46,4.422,3.587,7.229c0.128,2.807-0.932,5.538-2.918,7.524     L342.337,254.516l103.96,106.931c1.941,1.997,2.962,4.713,2.816,7.494s-1.445,5.376-3.585,7.159l-47.5,39.583     C396.166,417.234,393.894,418,391.63,418z M256.865,254.489l135.489,139.888l32.077-26.73L321.124,261.388     c-3.812-3.921-3.768-10.176,0.099-14.042l103.09-103.09l-32.032-26.694L256.865,254.489z"/></g></g></g><g id="Layer_1"/></svg>