<?xml version="1.0" ?><svg height="20px" viewBox="0 0 68 68" width="20px" xmlns="http://www.w3.org/2000/svg"><path d="M690,844 C671.222319,844 656,828.777681 656,810 C656,791.222319 671.222319,776 690,776 C708.777681,776 724,791.222319 724,810 C724,828.777681 708.777681,844 690,844 Z M712,830.396274 L712,789.603726 C710.778051,788.286315 709.439221,787.078844 708,785.997803 L708,834.002197 C709.439221,832.921156 710.778051,831.713685 712,830.396274 Z M716,824.976697 C718.544223,820.569367 720,815.454691 720,810 C720,804.545309 718.544223,799.430633 716,795.023303 L716,824.976697 Z M700,838.292943 C701.382665,837.804241 702.718808,837.217055 704,836.539814 L704,783.460186 C702.718808,782.782945 701.382665,782.195759 700,781.707057 L700,838.292943 Z M696,839.399891 L696,780.600109 C694.695413,780.335292 693.360085,780.15513 692,780.065609 L692,839.934391 C693.360085,839.84487 694.695413,839.664708 696,839.399891 Z M660,810 C660,825.896485 672.363936,838.905219 688,839.934391 L688,780.065609 C672.363936,781.094781 660,794.103515 660,810 Z" transform="translate(-656 -776)"/></svg>
