<?xml version="1.0" ?><svg height="16px" version="1.1" viewBox="0 0 16 16" width="16px" xmlns="http://www.w3.org/2000/svg" xmlns:xlink="http://www.w3.org/1999/xlink"><title/><desc/><defs/><g fill="none" fill-rule="evenodd" id="洞见" stroke="none" stroke-width="1"><g fill-rule="nonzero" id="图标" transform="translate(-173.000000, -409.000000)"><g id="Group-10-Copy" transform="translate(70.000000, 296.000000)"><g id="Group-8" transform="translate(103.000000, 113.000000)"><rect fill="#A2A2A2" height="16" id="Rectangle-23" opacity="0" width="16" x="0" y="0"/><path d="M7.20941927,4.55094112 L2.27127177,11.6539352 L2.58498843,12.9403751 L4.02454119,12.9906454 L8.93859771,5.74640186 L7.20941927,4.55094112 Z M7.78024687,3.72986701 L9.4999897,4.91880448 L10.1699897,3.93109853 L8.4733732,2.73287933 L7.78024687,3.72986701 Z M11.1476515,3.39731795 C11.3702103,3.55449804 11.4259493,3.86093418 11.2729947,4.08641796 L4.69700176,13.7806684 C4.60047731,13.9229636 4.43760924,14.0056796 4.26576954,13.9996788 L2.17151991,13.926546 C1.94763788,13.9187279 1.75627993,13.7629516 1.70320521,13.5453111 L1.24636448,11.6719706 C1.21242223,11.5327855 1.23981455,11.3857271 1.32159327,11.2680972 L7.939832,1.74847256 C8.09746115,1.52173998 8.4090479,1.46572058 8.63578048,1.62334973 L11.1476515,3.39731795 Z M6.5,14 C6.22385763,14 6,13.7761424 6,13.5 C6,13.2238576 6.22385763,13 6.5,13 L13.5,13 C13.7761424,13 14,13.2238576 14,13.5 C14,13.7761424 13.7761424,14 13.5,14 L6.5,14 Z" fill="#9699AC" id="Combined-Shape"/></g></g></g></g></svg>