<svg xmlns="http://www.w3.org/2000/svg" class="eye" height="32" version="1.1" viewBox="0 0 32 32" width="32"><g fill="none" fill-rule="evenodd" id="Page-1" stroke="none" stroke-width="1"><g fill="#929292" id="icon-22-eye"><path d="M16 9C7 9 3 16 3 16 3 16 7 23 16 23 25 23 29 16 29 16 29 16 25 9 16 9L16 9 16 9ZM16 10C8 10 4.2 16 4.2 16 4.2 16 8 22 16 22 24 22 27.8 16 27.8 16 27.8 16 24 10 16 10L16 10 16 10ZM16 20C18.2 20 20 18.2 20 16 20 13.8 18.2 12 16 12 13.8 12 12 13.8 12 16 12 18.2 13.8 20 16 20L16 20 16 20ZM16 19C17.7 19 19 17.7 19 16 19 14.3 17.7 13 16 13 14.3 13 13 14.3 13 16 13 17.7 14.3 19 16 19L16 19 16 19ZM16 17C16.6 17 17 16.6 17 16 17 15.4 16.6 15 16 15 15.4 15 15 15.4 15 16 15 16.6 15.4 17 16 17L16 17 16 17Z" id="eye"/></g></g></svg>
