<svg xmlns="http://www.w3.org/2000/svg" class="eye-hidden" height="32" version="1.1" viewBox="0 0 32 32" width="32"><g fill="none" fill-rule="evenodd" stroke="none" stroke-width="1"><g fill="#929292"><path d="M8.1 20.9C4.6 18.8 3 16 3 16 3 16 7 9 16 9 17.3 9 18.5 9.1 19.6 9.4L18.8 10.2C17.9 10.1 17 10 16 10 8 10 4.2 16 4.2 16 4.2 16 5.7 18.4 8.8 20.2L8.1 20.9 8.1 20.9 8.1 20.9ZM12.4 22.6C13.5 22.9 14.7 23 16 23 25 23 29 16 29 16 29 16 27.4 13.2 23.9 11.1L23.2 11.8C26.3 13.6 27.8 16 27.8 16 27.8 16 24 22 16 22 15 22 14.1 21.9 13.2 21.8L12.4 22.6 12.4 22.6 12.4 22.6ZM19.9 15.1C20 15.4 20 15.7 20 16 20 18.2 18.2 20 16 20 15.7 20 15.4 20 15.1 19.9L16 19C16.8 19 17.5 18.7 18.1 18.1 18.7 17.5 19 16.8 19 16L19.9 15.1 19.9 15.1 19.9 15.1ZM16.9 12.1C16.6 12 16.3 12 16 12 13.8 12 12 13.8 12 16 12 16.3 12 16.6 12.1 16.9L13 16C13 15.2 13.3 14.5 13.9 13.9 14.5 13.3 15.2 13 16 13L16.9 12.1 16.9 12.1 16.9 12.1ZM24 7L7 24 8 25 25 8 24 7 24 7Z"/></g></g></svg>
