<?xml version="1.0" encoding="UTF-8" standalone="no"?>
<svg width="64px" height="64px" viewBox="0 0 80 60" version="1.1" xmlns="http://www.w3.org/2000/svg" xmlns:xlink="http://www.w3.org/1999/xlink" xml:space="preserve" xmlns:serif="http://www.serif.com/" style="fill-rule:evenodd;clip-rule:evenodd;stroke-linecap:square;stroke-linejoin:round;stroke-miterlimit:1.5;">
    <g transform="matrix(0.939941,0,0,0.927669,-62.4853,-149.042)">
        <path d="M148.196,183.301C148.196,183.301 148.166,172.694 148.151,167.203C148.146,165.426 146.727,163.986 144.973,163.978C138.82,163.952 125.854,163.897 125.854,163.897" style="fill:none;stroke-width:4.28px;"/>
    </g>
    <g transform="matrix(0.939941,0,0,0.927669,-62.4853,-149.042)">
        <path d="M91.81,163.897C91.81,163.897 79.129,163.952 73.05,163.978C71.292,163.986 69.871,165.431 69.871,167.212C69.871,172.705 69.871,183.301 69.871,183.301" style="fill:none;stroke-width:4.28px;"/>
    </g>
    <g transform="matrix(0.939941,0,0,0.927669,-62.4853,-149.042)">
        <path d="M69.871,202.704C69.871,202.704 69.871,213.354 69.871,218.874C69.871,220.66 71.3,222.108 73.063,222.108C79.148,222.108 91.81,222.108 91.81,222.108" style="fill:none;stroke-width:4.28px;"/>
    </g>
    <g transform="matrix(0.939941,0,0,0.927669,-62.4853,-149.042)">
        <path d="M125.854,222.108C125.854,222.108 138.801,222.108 144.959,222.108C146.719,222.108 148.146,220.665 148.151,218.883C148.166,213.366 148.196,202.704 148.196,202.704" style="fill:none;stroke-width:4.28px;"/>
    </g>
</svg>
