<?xml version="1.0" ?><!DOCTYPE svg  PUBLIC "-//W3C//DTD SVG 1.1//EN"  "http://www.w3.org/Graphics/SVG/1.1/DTD/svg11.dtd"><svg width="29px" height="29px" id="Layer_1" version="1.1" viewBox="-2 -2 28 28" xml:space="preserve" xmlns="http://www.w3.org/2000/svg" xmlns:xlink="http://www.w3.org/1999/xlink"><g id="icon"><path d="M20.7,1.5h-6.2   c-0.3,0-0.6,0.1-0.8,0.2c-0.1,0-0.3,0.1-0.4,0.2L1.7,13.5c-0.3,0.3-0.3,0.8,0,1.1l7.8,7.8c0.3,0.3,0.8,0.3,1.1,0l11.6-11.6   c0.1-0.1,0.1-0.2,0.2-0.3c0.1-0.3,0.2-0.6,0.2-0.9V3.4C22.5,2.3,21.7,1.5,20.7,1.5z M18.4,7.3c-1,0-1.7-0.8-1.7-1.7   s0.8-1.7,1.7-1.7s1.7,0.8,1.7,1.7S19.4,7.3,18.4,7.3z" fill="none" stroke="#999" stroke-linecap="round" stroke-linejoin="round" stroke-miterlimit="1"/></g><g/><g/><g/><g/><g/><g/></svg>
