<?xml version="1.0" ?><svg enable-background="new 0 0 80 80" id="Layer_1" version="1.1" viewBox="0 0 80 80" xml:space="preserve" xmlns="http://www.w3.org/2000/svg" xmlns:xlink="http://www.w3.org/1999/xlink"><g id="XMLID_375_"><g id="XMLID_392_"><path d="M55.8217773,73H24.1787109c-2.7407227,0-4.9956055-2.0581055-5.2451172-4.7875977l-4.262207-46.628418    c-0.0253906-0.2797852,0.0678711-0.5576172,0.2573242-0.7651367s0.4575195-0.3256836,0.7387695-0.3256836h48.6655273    c0.28125,0,0.5493164,0.1181641,0.7387695,0.3256836s0.2827148,0.4853516,0.2573242,0.7651367l-4.2626953,46.628418    C60.8168945,70.9418945,58.5620117,73,55.8217773,73z M16.7631836,22.4931641l4.1625977,45.5375977    C21.0800781,69.7236328,22.4785156,71,24.1787109,71h31.6430664c1.699707,0,3.0981445-1.2768555,3.253418-2.9697266    l4.1621094-45.5371094H16.7631836z"/></g><g id="XMLID_387_"><path d="M65.7255859,22.4931641H14.2744141c-1.7119141,0-3.1044922-1.3925781-3.1044922-3.1044922v-3.21875    c0-1.7119141,1.3925781-3.1044922,3.1044922-3.1044922h51.4511719c1.7119141,0,3.1044922,1.3925781,3.1044922,3.1044922v3.21875    C68.8300781,21.1005859,67.4375,22.4931641,65.7255859,22.4931641z M14.2744141,15.0654297    c-0.6088867,0-1.1044922,0.4956055-1.1044922,1.1044922v3.21875c0,0.6088867,0.4956055,1.1044922,1.1044922,1.1044922h51.4511719    c0.6088867,0,1.1044922-0.4956055,1.1044922-1.1044922v-3.21875c0-0.6088867-0.4956055-1.1044922-1.1044922-1.1044922H14.2744141z    "/></g><g id="XMLID_388_"><path d="M48.3666992,15.0654297H31.6337891c-0.5522461,0-1-0.4477539-1-1v-3.1318359    C30.6337891,8.7646484,32.3984375,7,34.5673828,7h10.8652344c2.1694336,0,3.934082,1.7646484,3.934082,3.9335938v3.1318359    C49.3666992,14.6176758,48.9189453,15.0654297,48.3666992,15.0654297z M32.6337891,13.0654297h14.7329102v-2.1318359    C47.3666992,9.8671875,46.4990234,9,45.4326172,9H34.5673828c-1.0664063,0-1.9335938,0.8671875-1.9335938,1.9335938V13.0654297z"/></g><g id="XMLID_389_"><g id="XMLID_386_"><path d="M28.1152344,66.3974609c-0.5175781,0-0.9555664-0.3989258-0.9960938-0.9233398L24.253418,28.171875     c-0.0424805-0.5507813,0.3696289-1.03125,0.9204102-1.0737305c0.5512695-0.0390625,1.03125,0.3701172,1.0737305,0.9204102     l2.8657227,37.3022461c0.0424805,0.5507813-0.3696289,1.03125-0.9204102,1.0737305     C28.1669922,66.3964844,28.140625,66.3974609,28.1152344,66.3974609z"/></g><g id="XMLID_382_"><path d="M40,66.3974609c-0.5522461,0-1-0.4477539-1-1V28.0952148c0-0.5522461,0.4477539-1,1-1s1,0.4477539,1,1v37.3022461     C41,65.949707,40.5522461,66.3974609,40,66.3974609z"/></g><g id="XMLID_390_"><path d="M51.8852539,66.3974609c-0.0253906,0-0.0512695-0.0009766-0.0776367-0.0029297     c-0.5507813-0.0424805-0.9628906-0.5229492-0.9204102-1.0737305l2.8652344-37.3022461     c0.0424805-0.550293,0.5087891-0.9609375,1.0737305-0.9204102c0.5507813,0.0424805,0.9628906,0.5229492,0.9204102,1.0737305     l-2.8652344,37.3022461C52.8408203,65.9985352,52.402832,66.3974609,51.8852539,66.3974609z"/></g></g></g></svg>