<svg xmlns="http://www.w3.org/2000/svg" height="32" version="1.1" viewBox="0 0 32 32" width="32"><g fill="none" fill-rule="evenodd" stroke="none" stroke-width="1"><g fill="#777"><path d="M15.42 5.15C16.29 3.74 17.71 3.74 18.58 5.15L29.36 22.6C30.52 24.48 29.68 26 27.47 26L6.53 26C4.32 26 3.47 24.48 4.64 22.6L15.42 5.15 15.42 5.15ZM16.35 5.52C16.7 4.96 17.26 4.96 17.61 5.52L28.62 23.31C29.2 24.24 28.76 25 27.67 25L6.29 25C5.19 25 4.77 24.25 5.35 23.31L16.35 5.52 16.35 5.52ZM17 11C16.45 11 16 11.45 16 12L16 18C16 18.55 16.44 19 17 19 17.55 19 18 18.55 18 18L18 12C18 11.45 17.56 11 17 11L17 11ZM17 23C17.55 23 18 22.55 18 22 18 21.45 17.55 21 17 21 16.45 21 16 21.45 16 22 16 22.55 16.45 23 17 23L17 23Z"/></g></g></svg>
